<?xml version="1.0" standalone="no"?>
<!DOCTYPE svg PUBLIC "-//W3C//DTD SVG 20010904//EN"
 "http://www.w3.org/TR/2001/REC-SVG-20010904/DTD/svg10.dtd">
<svg version="1.0" xmlns="http://www.w3.org/2000/svg"
 width="435.000000pt" height="396.000000pt" viewBox="0 0 435.000000 396.000000"
 preserveAspectRatio="xMidYMid meet">

<g transform="translate(0.000000,396.000000) scale(0.100000,-0.100000)"
fill="#000000" stroke="none">
<path d="M1395 3141 c-113 -29 -158 -99 -176 -273 -6 -67 -9 -443 -7 -1058 4
-874 5 -960 21 -1015 21 -72 59 -123 113 -150 37 -19 59 -20 529 -20 534 0
555 2 640 56 75 47 108 152 85 265 -10 49 -20 66 -56 101 -73 71 -101 76 -466
81 l-318 4 0 259 0 259 138 0 c391 1 491 51 492 249 0 119 -39 179 -143 218
-31 12 -97 17 -262 22 l-220 6 0 245 0 245 320 6 c356 6 377 10 453 75 49 42
66 87 66 179 1 126 -53 195 -179 231 -52 15 -120 18 -530 20 -259 2 -483 -1
-500 -5z"/>
</g>
</svg>
